HIERARCHY
ROOT Hips
{
	OFFSET 0.000000 0.000000 0.000000
	CHANNELS 6 Xposition Yposition Zposition Xrotation Yrotation Zrotation
	JOINT LeftUpLeg_virtual
	{
		OFFSET 0.000000 0.000000 0.000000
		CHANNELS 3 Xrotation Yrotation Zrotation
		JOINT LeftUpLeg
		{
			OFFSET 10.205400 -3.823500 0.155100
			CHANNELS 3 Xrotation Yrotation Zrotation
			JOINT LeftLeg
			{
				OFFSET 0.708757 -12.982077 0.567790
				CHANNELS 3 Xrotation Yrotation Zrotation
				JOINT LeftFoot
				{
					OFFSET -0.708756 -10.717838 -2.184338
					CHANNELS 3 Xrotation Yrotation Zrotation
					JOINT LeftToeBase
					{
						OFFSET 0.108149 -7.191104 7.560241
						CHANNELS 3 Xrotation Yrotation Zrotation
						JOINT LeftToe_End
						{
							OFFSET 0.070230 0.081724 4.490308
							CHANNELS 3 Xrotation Yrotation Zrotation
							End Site
							{
								OFFSET 0 0 0
							}
						}
					}
				}
			}
		}
	}
	JOINT RightUpLeg_virtual
	{
		OFFSET 0.000000 0.000000 0.000000
		CHANNELS 3 Xrotation Yrotation Zrotation
		JOINT RightUpLeg
		{
			OFFSET -10.205400 -3.823500 0.005500
			CHANNELS 3 Xrotation Yrotation Zrotation
			JOINT RightLeg
			{
				OFFSET -0.708756 -12.982134 0.610632
				CHANNELS 3 Xrotation Yrotation Zrotation
				JOINT RightFoot
				{
					OFFSET 0.708754 -10.717769 -1.945823
					CHANNELS 3 Xrotation Yrotation Zrotation
					JOINT RightToeBase
					{
						OFFSET -0.108140 -7.191069 7.372968
						CHANNELS 3 Xrotation Yrotation Zrotation
						JOINT RightToe_End
						{
							OFFSET -0.070227 0.081735 4.479403
							CHANNELS 3 Xrotation Yrotation Zrotation
							End Site
							{
								OFFSET 0 0 0
							}
						}
					}
				}
			}
		}
	}
	JOINT Spine_virtual
	{
		OFFSET 0.000000 0.000000 0.000000
		CHANNELS 3 Xrotation Yrotation Zrotation
		JOINT Spine
		{
			OFFSET 0.000000 6.876099 0.125700
			CHANNELS 3 Xrotation Yrotation Zrotation
			JOINT Spine1
			{
				OFFSET 0.000000 5.730043 0.104720
				CHANNELS 3 Xrotation Yrotation Zrotation
				JOINT Spine1_split
				{
					OFFSET 0.000000 5.730043 0.104720
					CHANNELS 3 Xrotation Yrotation Zrotation
					JOINT Spine2
					{
						OFFSET 0.000000 5.730043 0.104720
						CHANNELS 3 Xrotation Yrotation Zrotation
						JOINT Neck_virtual
						{
							OFFSET 0.000000 0.000000 0.000000
							CHANNELS 3 Xrotation Yrotation Zrotation
							JOINT Neck
							{
								OFFSET 0.000000 10.314075 0.188496
								CHANNELS 3 Xrotation Yrotation Zrotation
								JOINT Head
								{
									OFFSET 0.000000 7.643700 -2.377400
									CHANNELS 3 Xrotation Yrotation Zrotation
									JOINT HeadTop_End
									{
										OFFSET 0.000000 43.788605 -13.619600
										CHANNELS 3 Xrotation Yrotation Zrotation
										End Site
										{
											OFFSET 0 0 0
										}
									}
								}
							}
						}
						JOINT LeftShoulder_virtual
						{
							OFFSET 0.000000 0.000000 0.000000
							CHANNELS 3 Xrotation Yrotation Zrotation
							JOINT LeftShoulder
							{
								OFFSET 2.196100 4.412489 0.087492
								CHANNELS 3 Xrotation Yrotation Zrotation
								JOINT LeftShoulder_split
								{
									OFFSET 2.196100 4.412489 0.087492
									CHANNELS 3 Xrotation Yrotation Zrotation
									JOINT LeftArm
									{
										OFFSET 8.771219 -2.981674 -0.026999
										CHANNELS 3 Xrotation Yrotation Zrotation
										JOINT LeftForeArm
										{
											OFFSET 8.512804 0.000000 -0.000000
											CHANNELS 3 Xrotation Yrotation Zrotation
											JOINT LeftHand
											{
												OFFSET 18.484802 0.000000 -0.000000
												CHANNELS 3 Xrotation Yrotation Zrotation
												End Site
												{
													OFFSET 0 0 0
												}
											}
										}
									}
								}
							}
						}
						JOINT RightShoulder_virtual
						{
							OFFSET 0.000000 0.000000 0.000000
							CHANNELS 3 Xrotation Yrotation Zrotation
							JOINT RightShoulder
							{
								OFFSET -2.196100 4.412496 0.070690
								CHANNELS 3 Xrotation Yrotation Zrotation
								JOINT RightShoulder_split
								{
									OFFSET -2.196100 4.412496 0.070690
									CHANNELS 3 Xrotation Yrotation Zrotation
									JOINT RightArm
									{
										OFFSET -8.771282 -2.981682 -0.094208
										CHANNELS 3 Xrotation Yrotation Zrotation
										JOINT RightForeArm
										{
											OFFSET -8.494598 0.000000 0.000000
											CHANNELS 3 Xrotation Yrotation Zrotation
											JOINT RightHand
											{
												OFFSET -18.483803 0.000000 0.000001
												CHANNELS 3 Xrotation Yrotation Zrotation
												End Site
												{
													OFFSET 0 0 0
												}
											}
										}
									}
								}
							}
						}
					}
				}
			}
		}
	}
}
MOTION
Frames: 10
Frame Time: 0.03333333
9.467678 79.291878 21.630871 0.000000 0.000000 0.000000 -0.936242 34.304878 1.161058 -29.067274 32.150011 18.805305 39.944831 -15.898011 4.529582 4.595298 -12.853348 -30.223536 12.005684 -1.494473 0.074430 0.000000 0.000000 0.000000 1.458352 32.075695 0.225872 -43.678592 -4.402456 -13.902661 -4.212653 16.893496 4.157354 10.867349 0.822003 14.536236 15.358652 -1.405070 -2.230528 0.000000 0.000000 0.000000 1.523934 41.882969 0.287887 6.801376 -4.398688 -0.628467 15.626426 -6.123020 4.653627 0.283218 0.376837 -0.248518 0.000000 0.000000 0.000000 15.243684 -3.743252 5.194466 -5.926978 7.666488 -16.155969 -17.580810 -51.115326 -12.706609 0.000000 0.000000 0.000000 11.245242 -5.285153 1.757499 0.306464 2.887895 6.521900 6.379460 -0.737636 4.529964 -131.922672 -71.433691 -139.694062 -69.412556 -78.305988 -69.421626 0.000000 0.000000 0.000000 15.006284 -4.364478 3.770460 -2.259989 11.314764 3.174249 0.307994 -4.140967 3.327134 -20.405538 45.020089 55.776780 -23.777579 42.936830 20.528608 0.000000 0.000000 0.000000 
9.455481 77.159378 23.603460 0.000000 0.000000 0.000000 -1.987827 32.607248 1.817129 -27.335355 31.943654 18.866210 39.242370 -14.755623 4.412058 2.680724 -13.052539 -35.367724 14.631729 -1.707946 0.028991 0.000000 0.000000 0.000000 0.598325 30.832475 0.863768 -43.259478 -2.971105 -13.090110 -1.796718 18.305018 4.248764 16.860699 3.234326 14.135320 19.497289 -0.928997 -0.932764 0.000000 0.000000 0.000000 -1.050368 40.518164 1.971338 7.204674 -3.084004 0.028607 15.570326 -5.990221 4.350232 0.178421 0.431913 -0.228087 0.000000 0.000000 0.000000 15.255183 -3.662251 4.733431 -3.800749 6.764988 -17.125451 -17.654217 -58.472915 -12.783356 0.000000 0.000000 0.000000 11.769629 -5.269443 1.653145 0.423770 2.303564 7.005678 7.067207 -0.237687 3.524990 -124.757326 -70.884455 -132.015303 -64.780690 -78.573110 -64.838890 0.000000 0.000000 0.000000 15.494463 -4.228544 3.678676 -2.250388 11.678592 2.057439 0.477089 -3.546497 3.491658 -23.018502 45.544856 55.774259 -23.600197 40.143931 19.934062 0.000000 0.000000 0.000000 
9.356112 74.643822 25.559803 0.000000 0.000000 0.000000 -2.420691 31.102059 2.193512 -24.222071 32.006417 17.753642 36.876663 -11.852226 4.285896 0.242402 -11.494000 -37.965603 16.028448 -1.863166 -1.210865 0.000000 0.000000 0.000000 0.137861 30.156334 1.258956 -42.786190 -2.321613 -12.116814 0.229190 18.765453 4.325716 22.730340 4.286758 14.169688 19.755103 -0.412888 -1.438575 0.000000 0.000000 0.000000 -2.321152 38.778276 2.983515 7.290869 -1.931671 0.665283 15.299622 -5.488177 3.843888 0.091116 0.457891 -0.161352 0.000000 0.000000 0.000000 14.792639 -3.275683 3.980981 -1.643957 5.941738 -17.058099 -18.828465 -65.302838 -14.192705 0.000000 0.000000 0.000000 12.243263 -4.883523 1.447279 0.398874 1.820307 7.741134 7.789903 0.701675 2.028865 -116.053684 -69.275528 -122.595325 -51.646960 -77.591987 -51.901300 0.000000 0.000000 0.000000 15.798415 -3.767973 3.280444 -2.305771 11.453014 0.218320 0.860285 -3.355820 4.482599 -24.870375 45.453037 56.912524 -24.507405 40.553770 20.234869 0.000000 0.000000 0.000000 
9.251374 71.734802 27.469475 0.000000 0.000000 0.000000 -2.472324 30.071212 2.485515 -21.093687 31.884860 16.127629 32.607962 -8.707516 4.643806 -0.755003 -10.087113 -39.628088 14.144620 -1.922738 -2.790068 0.000000 0.000000 0.000000 0.339278 30.069689 1.475145 -39.439240 -3.324275 -10.120734 0.015827 17.395571 3.960540 23.422921 3.180784 14.041042 14.467787 0.164744 -3.769855 0.000000 0.000000 0.000000 -2.337452 37.212916 3.512625 7.039700 -1.110688 1.102624 14.875334 -4.681124 3.222943 0.062944 0.402123 -0.045240 0.000000 0.000000 0.000000 13.955394 -2.615625 3.029773 -0.057717 5.363902 -15.735740 -21.537999 -70.961062 -17.331974 0.000000 0.000000 0.000000 12.655652 -4.200035 1.216014 0.183361 1.580930 8.796671 8.584695 1.517759 0.307679 -108.333282 -67.141128 -114.161414 -38.391629 -75.093531 -38.935500 0.000000 0.000000 0.000000 15.842525 -3.106330 2.622888 -2.411180 10.660338 -1.925517 1.635231 -3.175289 5.631681 -25.962982 44.788395 59.414033 -26.555779 44.581020 21.677299 0.000000 0.000000 0.000000 
9.117671 68.467293 29.487999 0.000000 0.000000 0.000000 -2.437377 29.593550 2.896148 -18.414048 31.639625 14.612015 26.229038 -6.464377 5.444110 0.721081 -10.083981 -40.548787 8.495710 -1.833016 -3.758837 0.000000 0.000000 0.000000 0.486553 30.496993 1.943103 -33.385309 -5.557424 -7.560970 -1.889469 14.134819 2.793909 19.764641 0.003741 12.927866 9.757132 1.211376 -6.642322 0.000000 0.000000 0.000000 -1.338384 35.703489 3.476579 6.438646 -0.688754 1.210876 14.373184 -3.606179 2.659597 0.129804 0.327882 0.025331 0.000000 0.000000 0.000000 12.785965 -1.656403 2.137442 0.757764 4.941590 -13.297945 -26.466502 -75.371561 -22.454699 0.000000 0.000000 0.000000 12.925115 -3.281674 1.163726 -0.196974 1.410515 10.110461 8.699115 2.632840 -1.649908 -102.072307 -65.024111 -107.502246 -29.623350 -71.640044 -30.484784 0.000000 0.000000 0.000000 15.484027 -2.278671 1.915016 -2.457354 9.466911 -4.101747 2.696527 -3.078513 6.833847 -25.914257 43.792034 62.754842 -29.706122 51.142459 24.391126 0.000000 0.000000 0.000000 
8.865694 64.851974 31.929169 0.000000 0.000000 0.000000 -2.228364 30.239618 3.358956 -16.226725 31.454496 13.466223 17.936043 -5.276774 6.210254 4.128362 -11.443208 -40.485741 1.383135 -1.653618 -3.715529 0.000000 0.000000 0.000000 -0.081020 30.802295 2.874269 -27.232980 -7.536437 -5.388182 -4.005393 10.268532 0.966093 15.258759 -3.666007 12.273973 9.848368 2.347325 -9.175641 0.000000 0.000000 0.000000 0.372371 34.673479 2.895631 5.477657 -0.675237 0.949506 13.772224 -2.375610 2.392121 0.181931 0.191253 0.046361 0.000000 0.000000 0.000000 11.524825 -0.454767 1.616115 0.585775 4.554038 -9.927357 -34.674760 -79.322088 -30.286708 0.000000 0.000000 0.000000 12.992306 -2.186773 1.522232 -0.735691 1.252077 11.486523 8.117239 3.235321 -3.452810 -97.030145 -63.535956 -102.937590 -26.301628 -69.123359 -27.502803 0.000000 0.000000 0.000000 14.698582 -1.364666 1.472705 -2.310194 8.151435 -5.839349 3.462563 -3.369239 7.809786 -24.410686 42.514919 65.937048 -33.474241 57.863614 27.807403 0.000000 0.000000 0.000000 
8.504560 60.821114 34.621655 0.000000 0.000000 0.000000 -1.815902 31.972997 3.478078 -15.265181 30.857388 13.298467 9.415243 -4.986591 6.424756 8.015365 -13.464672 -39.232709 -4.376461 -1.540547 -2.973260 0.000000 0.000000 0.000000 -0.580925 31.359854 3.774663 -22.069835 -7.668263 -3.856774 -6.073461 8.069102 -1.187042 11.523239 -5.702569 14.705708 10.074789 3.481206 -12.017250 0.000000 0.000000 0.000000 1.894283 33.987448 1.970312 4.426106 -0.982087 0.413601 13.085932 -1.124411 2.606292 0.222137 -0.022484 0.030370 0.000000 0.000000 0.000000 10.505432 0.927022 1.771347 -0.739445 4.146537 -6.058011 -51.832929 -82.950236 -46.281010 0.000000 0.000000 0.000000 12.790006 -0.959046 2.485577 -1.288664 1.097444 12.756312 6.704101 3.113453 -5.584927 -91.856871 -62.888851 -99.691378 -26.979736 -68.506825 -28.451877 0.000000 0.000000 0.000000 13.507678 -0.496087 1.598816 -1.933467 7.011350 -6.833825 3.768755 -3.303840 8.125358 -21.879833 40.785218 68.444062 -36.307657 62.578917 30.222730 0.000000 0.000000 0.000000 
8.101499 56.272415 37.720638 0.000000 0.000000 0.000000 -1.027642 33.744017 2.647965 -16.690291 29.385448 15.017310 3.587430 -5.599062 5.831659 11.356828 -15.510058 -37.262275 -6.717226 -1.413726 -2.020799 0.000000 0.000000 0.000000 0.135060 32.203768 3.605737 -17.639466 -5.847557 -2.574594 -7.578191 8.555431 -3.002957 9.545416 -5.568106 20.628623 5.122635 4.836766 -15.730962 0.000000 0.000000 0.000000 3.074574 33.500391 0.465663 3.489145 -1.322940 -0.127814 12.447396 0.148496 3.371788 0.221066 -0.200917 -0.011035 0.000000 0.000000 0.000000 9.866639 2.436418 2.724805 -2.977870 3.631989 -2.262168 -93.057625 -84.984205 -85.674628 0.000000 0.000000 0.000000 12.436554 0.407176 4.029255 -1.789457 0.928091 13.653529 4.858653 2.524303 -7.660807 -86.884787 -61.886637 -97.607658 -30.961541 -69.961744 -32.629026 0.000000 0.000000 0.000000 12.163352 0.353446 2.413981 -1.178014 6.610452 -7.090335 3.409687 -3.389387 8.322813 -18.676874 38.615301 69.700093 -36.215538 64.110259 29.476569 0.000000 0.000000 0.000000 
7.781630 51.301529 40.817612 0.000000 0.000000 0.000000 0.098653 34.755691 0.405510 -22.452056 26.119209 19.116094 3.596195 -6.936046 4.540989 14.156902 -17.664382 -35.331674 -6.434085 -1.134832 -0.909401 0.000000 0.000000 0.000000 1.428556 32.456055 1.625432 -14.888286 -3.119229 -1.143116 -6.109359 10.427155 -4.006369 9.095206 -4.452434 27.730501 -0.817700 5.940248 -19.708224 0.000000 0.000000 0.000000 3.975959 32.898754 -1.837235 2.848729 -1.430781 -0.376771 12.044938 1.432360 4.613021 0.156067 -0.325256 -0.013497 0.000000 0.000000 0.000000 9.906659 3.956045 4.345131 -5.955500 3.264946 0.880379 -134.857345 -83.288406 -125.440836 0.000000 0.000000 0.000000 12.026342 1.910166 5.924291 -2.178962 0.953178 13.978829 3.445431 1.245974 -9.432367 -83.632381 -59.310453 -96.742144 -38.298042 -72.923853 -40.144748 0.000000 0.000000 0.000000 11.078128 1.194996 3.858790 -0.138925 7.329168 -6.570951 2.782929 -3.439322 7.855026 -16.483125 35.885472 69.872302 -33.244341 62.136082 25.432775 0.000000 0.000000 0.000000 
7.535052 46.108299 43.734001 0.000000 0.000000 0.000000 1.200856 34.763836 -3.296299 -32.557415 19.592524 24.716692 11.328365 -8.595341 3.202426 16.584031 -19.516675 -32.185603 -7.019580 -0.807898 0.639398 0.000000 0.000000 0.000000 2.782079 32.364353 -2.152182 -14.518028 -0.643021 0.790080 -0.549869 11.451353 -4.280640 7.637690 -4.133248 32.298100 -1.790811 5.635626 -23.321326 0.000000 0.000000 0.000000 4.819407 31.789138 -5.121270 2.752771 -1.071003 0.003308 12.182938 2.795616 6.060266 0.152856 -0.362011 -0.001486 0.000000 0.000000 0.000000 10.723570 5.481811 6.294942 -9.338648 3.230311 2.976074 -146.347909 -80.310689 -135.202515 0.000000 0.000000 0.000000 11.856067 3.489760 7.800217 -2.373961 1.091971 13.773711 2.568342 0.014663 -10.483830 -83.688969 -53.879394 -96.362112 -45.637576 -75.671106 -47.640341 0.000000 0.000000 0.000000 10.643820 2.118013 5.630545 1.074041 9.381107 -5.731973 1.966665 -3.444279 7.337454 -17.148194 32.888993 69.077876 -29.682141 57.019280 20.335136 0.000000 0.000000 0.000000 
